<?xml version="1.0" encoding="utf-8"?>
<!-- Generator: Adobe Illustrator 24.3.0, SVG Export Plug-In . SVG Version: 6.00 Build 0)  -->
<svg version="1.1" id="Layer_1" xmlns="http://www.w3.org/2000/svg" xmlns:xlink="http://www.w3.org/1999/xlink" x="0px" y="0px"
	 viewBox="0 0 318.4 211" style="enable-background:new 0 0 318.4 211;" xml:space="preserve">
<style type="text/css">
	.st0{fill:none;}
	.st1{fill:#041A33;}
	.st2{font-family:'ArialMT';}
	.st3{font-size:33px;}
	.st4{letter-spacing:6;}
	.st5{fill:#9CCEF0;}
	.st6{fill-rule:evenodd;clip-rule:evenodd;fill:#FFFFFF;}
	.st7{fill-rule:evenodd;clip-rule:evenodd;fill:#50A9D9;}
	.st8{fill-rule:evenodd;clip-rule:evenodd;fill:#E0F3FF;}
	.st9{fill:#E0F3FF;}
	.st10{fill-rule:evenodd;clip-rule:evenodd;fill:#64B3DE;}
	.st11{fill:#FFC978;}
	.st12{fill:#FF7484;}
	.st13{fill:#FFFFFF;}
	.st14{fill:#FFA2AC;}
	.st15{fill-rule:evenodd;clip-rule:evenodd;fill:#F7A34A;}
</style>
<path class="st0" d="M0,0h318v211H0V0z"/>
<text transform="matrix(1 0 0 1 131.366 184.14)" class="st1 st2 st3 st4">school</text>
<path class="st5" d="M92,111c-0.3-0.5-0.7-1-1-1.4c-0.3-0.5-0.7-0.9-1-1.4l-0.5-0.6c-0.4,0.1-0.9,0.3-1.3,0.4
	c-1,0.3-2.1,0.6-3.2,0.8c-1.1,0.2-2.2,0.4-3.2,0.5c-1.1,0.1-2.2,0.2-3.3,0.2c-1.1,0-2.2,0-3.4-0.1c-1.1-0.1-2.2-0.2-3.4-0.3
	c-1-0.1-1.9-0.3-2.9-0.5c1,1.1,1.9,2.2,2.7,3.5c1.3,2.3,2.3,4.7,2.9,7.3c0.3,1.2,0.5,2.5,0.6,3.7c0.1,0.6,0.1,1.2,0.2,1.8l18.4-11.6
	c-0.2-0.3-0.4-0.6-0.6-0.9C92.6,112,92.3,111.5,92,111L92,111z"/>
<path class="st5" d="M25.1,156.4l25.4-16c-1-0.7-2-1.5-2.9-2.3c-1.3-1.2-2.4-2.5-3.4-4c-1-1.4-1.8-3-2.4-4.6c-0.2-0.7-0.5-1.3-0.6-2
	c-0.2-0.7-0.3-1.4-0.5-2.1c-0.1-0.7-0.2-1.4-0.3-2.1s-0.1-1.4-0.1-2.1c0-1,0.8-1.7,1.8-1.7c1,0,1.7,0.8,1.7,1.8v0.6
	c0,0.4,0,0.8,0,1.1c0,0.6,0.1,1.2,0.2,1.8c0.1,0.6,0.2,1.2,0.4,1.8c0.2,0.6,0.3,1.1,0.5,1.7c0.5,1.4,1.2,2.7,2,3.9
	c0.8,1.2,1.8,2.4,2.9,3.4c1.1,1,2.4,2,3.7,2.7c1.4,0.8,2.8,1.4,4.3,1.9h0c1.9,0.6,3.9,1.3,5.7,2.1c1.5,0.7,3,1.5,4.5,2.4
	c1.2,0.8,2.4,1.8,3.4,2.9c0.8,0.9,1.5,2,2,3.2v0.1c0.3,0.7,0.6,1.4,1,2c0.4,0.5,0.8,0.9,1.3,1.3c0.2,0.2,0.5,0.3,0.8,0.3
	c0.2,0.1,0.5,0.1,0.8,0.1c0.3,0,0.5-0.1,0.7-0.2c0.3-0.1,0.5-0.3,0.7-0.4c0.4-0.4,0.8-0.8,1.1-1.4c0.3-0.6,0.6-1.3,0.7-2
	c0.3-1.2,0.4-2.4,0.4-3.7c0-1.1-0.1-2.2-0.4-3.3c-0.2-1-0.6-2-1.1-2.9c-0.5-0.9-1.2-1.8-1.9-2.5c-1-1-1.9-1.9-2.6-2.8
	c-0.7-0.7-1.3-1.6-1.8-2.4c-0.5-0.8-0.8-1.7-1.1-2.6c-0.3-1-0.4-2-0.4-3.1v-0.1c0-1.3-0.1-2.5-0.2-3.7c-0.1-1.1-0.3-2.3-0.6-3.4
	c-0.5-2.2-1.3-4.2-2.4-6.1c-1-1.7-2.3-3.2-3.9-4.4c-1.3-1-2.8-1.7-4.4-2.2c-1.6-0.5-3.4-0.7-5.1-0.7c-0.6,0-1.3,0.1-1.9,0.1
	c-0.6,0.1-1.3,0.2-1.9,0.3c-0.9,0.2-1.9-0.4-2.1-1.3c-0.2-0.9,0.4-1.9,1.3-2.1c1.5-0.3,3-0.5,4.5-0.5h0.6c-0.8-0.5-1.6-1.1-2.3-1.7
	c-0.8-0.7-1.6-1.4-2.4-2.1c-0.7-0.7-1.5-1.5-2.1-2.3L48.9,97c-2,2-3.8,4.1-5.5,6.1c-2.3,2.7-4.4,5.6-6.4,8.6
	c-1.9,2.8-3.6,5.8-5.2,8.8c-1.5,2.9-2.7,5.9-3.8,9c-0.9,2.6-1.6,5.2-2.2,7.8c-0.5,2.5-0.9,5.1-1.1,7.7c-0.2,2.5-0.2,5,0,7.4
	C24.8,153.8,24.9,155.1,25.1,156.4L25.1,156.4z"/>
<path class="st6" d="M73.1,98.8c9.3,0,22.1,25,21.5,34.8v0.2c-0.5,0.4-1,0.8-1.4,1.3c-2.1,0.8-4,2.2-5.4,4l-0.6,0.6
	c-0.6,0.4-1.1,0.9-1.6,1.5c-0.5,0-1.1,0.1-1.6,0.3c-1.1,0.2-2.2,0.5-3.1,1.1c-0.2-0.3-0.3-0.6-0.5-0.9c-0.1-0.1-0.2-0.2-0.2-0.4
	c-0.5-0.9-1.1-1.8-1.8-2.7c-0.2-0.8-0.5-1.7-0.9-2.5v0c-0.5-1.2-1.1-2.3-2-3.2c-0.4-0.4-0.8-0.7-1.2-1c-0.3-0.3-0.7-0.6-1-0.8
	c-0.1-0.1-0.2-0.2-0.4-0.3c0.1-0.5,0.2-1,0.2-1.5v-0.1c0.1-0.5,0.1-0.9,0.1-1.4v-3.3c0-1.5-0.6-3-1.6-4.2c-0.1-0.4-0.2-0.8-0.3-1.2
	c-0.1-0.8-0.4-1.5-0.7-2.3c-0.1-0.4-0.3-0.8-0.5-1.1l-0.1-0.3c-0.2-0.7-0.5-1.4-0.9-2c-0.2-0.5-0.5-0.9-0.7-1.3
	c-0.6-1.1-1.4-2-2.4-2.7c-0.4-0.4-0.9-0.8-1.4-1.1c-1.6-1.4-3.6-2.2-5.7-2.2h-0.4C62.4,101.5,63.8,98.8,73.1,98.8L73.1,98.8z"/>
<path class="st5" d="M16.1,161.3c0.2,0.1,0.5,0.2,0.7,0.3l4.8-3c-0.3-1.8-0.6-3.6-0.8-5.4c-0.2-2.7-0.2-5.4,0-8.1
	c0.1-1.6,0.3-3.3,0.6-5c-6.1-0.5-11.4,4.1-11.9,10.2C9.1,155,11.8,159.4,16.1,161.3L16.1,161.3z"/>
<path class="st5" d="M97.3,146.4c-0.9-1.6-2-3.1-3.3-4.4c-1.3-1.3-2.8-2.3-4.4-3.1l-0.1-0.1l-5.5,3.5c0,0.2,0.1,0.3,0.1,0.5
	c0.3,1.3,0.5,2.7,0.5,4.1c0,1.5-0.2,3-0.5,4.5v0c-0.2,1.1-0.6,2.1-1.1,3.1c-0.5,0.9-1.1,1.6-1.8,2.2c-0.4,0.4-0.9,0.7-1.5,0.9
	c2,6.7,0.2,13.9-4.5,18.9c-0.2,0.3-0.5,0.5-0.7,0.7c0.9,0.3,1.8,0.6,2.6,0.9l0.1,0c2,0.8,3.8,2.2,5.2,3.9h3.8c1.6,0,3.2,0,4.7-0.1
	c1.6,0,3.1-0.1,4.6-0.1c1.5,0,3-0.1,4.5-0.2c0.3,0,0.5-0.1,0.8-0.1c0.2-0.1,0.4-0.2,0.5-0.3c0.1-0.1,0.2-0.2,0.2-0.3
	c0.1-0.1,0.1-0.3,0.1-0.4c0-0.2,0-0.4,0-0.6c0-0.2-0.1-0.5-0.2-0.7c-0.3-0.7-0.8-1.3-1.4-1.8c-0.7-0.6-1.5-1.1-2.4-1.5
	c-0.4-0.2-0.9-0.3-1.4-0.5s-1-0.3-1.5-0.5s-1-0.3-1.5-0.4c-0.4-0.1-0.7-0.2-1.1-0.2c-1.8,1-3.8,1.7-5.8,2.1h0c-0.5,0.1-1,0-1.5-0.3
	c-0.4-0.3-0.7-0.8-0.8-1.3c-0.1-0.5,0-1.1,0.3-1.5c0.3-0.4,0.8-0.8,1.3-0.9c1.8-0.3,3.5-1,5-1.9c1.6-0.9,3-2,4.2-3.4
	c1.2-1.4,2.3-2.9,3-4.6c0.8-1.7,1.3-3.5,1.5-5.3c0.2-1.8,0.2-3.7-0.1-5.6C98.7,149.8,98.1,148,97.3,146.4L97.3,146.4z"/>
<path class="st5" d="M78,183.4c-0.7-0.6-1.5-1.1-2.4-1.5c-1-0.4-1.9-0.7-2.9-1c-0.8-0.2-1.7-0.5-2.6-0.6c-1.7,0.9-3.6,1.6-5.5,1.9
	c-1,0.2-2.1-0.4-2.3-1.4c-0.2-1,0.4-2.1,1.4-2.3c0,0,0.1,0,0.1,0c8.5-1.6,14.1-9.8,12.5-18.4c-0.2-0.8-0.4-1.6-0.6-2.3
	c-0.6-0.2-1.2-0.4-1.7-0.8c-0.8-0.5-1.6-1.2-2.2-2c-0.7-0.9-1.2-1.9-1.6-2.9l0-0.1c-0.1-0.3-0.3-0.6-0.4-0.9l-37.7,23.8
	c0.8,0.9,1.6,1.7,2.4,2.4c1,1,2.2,1.9,3.5,2.5c1.1,0.3,1.7,1.5,1.4,2.6c0,0.1-0.1,0.2-0.1,0.3c-0.4,0.8-0.7,1.7-0.7,2.6
	c0,1.3,1,2.4,2.4,2.5c0.1,0,0.2,0,0.3,0h0.1c9.2,0.4,18.4,0.5,27.6,0.4c3.1-0.1,6.1-0.1,9-0.3c1.1,0,1.8-0.6,1.6-1.8
	C79.4,184.9,78.8,184,78,183.4L78,183.4z"/>
<path class="st5" d="M47.3,85.6c0.2,0.8,0.5,1.6,0.8,2.4c0.3,0.8,0.7,1.5,1.1,2.3c0.2,0.5,0.5,0.9,0.8,1.3l0.1,0.2
	c0.1,0.2,0.3,0.5,0.5,0.7c0.3,0.4,0.6,0.8,0.9,1.2l0.1,0.1c0.2,0.2,0.4,0.5,0.6,0.7c0.6,0.7,1.2,1.4,1.9,2c0.7,0.6,1.4,1.2,2.1,1.8
	c0.7,0.6,1.5,1.1,2.3,1.7c0.8,0.5,1.6,1,2.5,1.5c0.9,0.5,1.8,0.9,2.7,1.3c0.9,0.4,1.8,0.7,2.8,1c1,0.3,1.9,0.6,2.9,0.8
	c1,0.2,2,0.4,3,0.6c1,0.2,2,0.3,3,0.3c1,0.1,2,0.1,3,0.1c1,0,2-0.1,3-0.2c1-0.1,2-0.3,2.9-0.5c0.9-0.2,1.8-0.4,2.6-0.7l0.2,0
	c0.9-0.3,1.8-0.6,2.7-0.9c0.4-0.2,0.8-0.3,1.1-0.5s0.9-0.4,1.4-0.7c0.8-0.4,1.6-0.9,2.3-1.4c0.7-0.5,1.4-1,2.1-1.6
	c0.7-0.5,1.3-1.1,1.9-1.8c0.6-0.6,1.2-1.3,1.7-1.9c0.5-0.7,1-1.4,1.4-2.1c1.3-2.1,2.2-4.5,2.7-6.9c0.2-0.8,0.3-1.6,0.4-2.5
	c0.1-0.8,0.1-1.7,0.1-2.5c0-0.8-0.1-1.7-0.2-2.5c-0.1-0.8-0.2-1.7-0.4-2.5c-0.2-0.8-0.4-1.7-0.7-2.5c-0.3-0.8-0.6-1.7-1-2.5
	c-0.4-0.8-0.8-1.6-1.2-2.4c-0.4-0.8-0.9-1.5-1.5-2.3s-1.1-1.5-1.7-2.2c-0.6-0.7-1.2-1.4-1.9-2c-0.7-0.6-1.3-1.3-2-1.9
	c-0.7-0.6-1.4-1.1-2.2-1.6s-1.5-1-2.3-1.4c-0.8-0.4-1.6-0.8-2.4-1.2c-0.8-0.4-1.7-0.7-2.5-1l-0.1,0c-0.8-0.3-1.6-0.5-2.5-0.7
	s-1.8-0.4-2.7-0.5S77.7,54,76.8,54c-0.9,0-1.8,0-2.7,0c-0.9,0.1-1.8,0.1-2.7,0.2l-0.5,0.1c-0.7,0.1-1.5,0.2-2.2,0.4
	c-0.9,0.2-1.8,0.4-2.6,0.7c-0.9,0.3-1.7,0.6-2.6,1c-0.8,0.4-1.7,0.8-2.5,1.2c-0.4,0.2-0.7,0.4-1.1,0.6s-0.9,0.5-1.3,0.8
	c-0.8,0.5-1.5,1-2.2,1.6c-0.7,0.6-1.4,1.2-2,1.8c-0.6,0.6-1.3,1.3-1.8,2C52,65,51.5,65.7,51,66.4c-0.5,0.7-0.9,1.4-1.4,2.2
	c-0.4,0.7-0.8,1.5-1.1,2.3c-0.3,0.8-0.6,1.6-0.9,2.4c-0.2,0.8-0.5,1.6-0.6,2.4c-0.2,0.8-0.3,1.7-0.3,2.5
	C46.4,80.7,46.6,83.2,47.3,85.6L47.3,85.6z M89.4,75.6c2,0,3.7,1.7,3.6,3.8c0,2-1.7,3.7-3.8,3.6c-2,0-3.7-1.7-3.6-3.8
	c0-1,0.4-1.9,1.1-2.6C87.5,76,88.4,75.6,89.4,75.6z M84.2,95.9l-0.1-0.1C84.1,95.7,84.2,95.8,84.2,95.9L84.2,95.9z M68.4,89.5
	c0.6,0.1,1.1,0.8,0.9,1.4c-0.2,1,0.4,1.9,1.4,2.1c0,0,0.1,0,0.1,0c0.2,0,0.3,0,0.5,0c0.3-0.1,0.6-0.2,0.9-0.4
	c0.4-0.3,0.6-0.8,0.6-1.3c-0.4-0.2-0.7-0.5-1-0.9c-0.7-0.7-1.1-1.7-1.2-2.7c0-0.9,0.5-1.8,1.3-2.3c2.2-1.1,4.8-0.7,6.6,0.9
	c0.7,0.7,0.9,1.7,0.6,2.6c-0.4,0.9-1,1.7-1.9,2.2c-0.4,0.2-0.8,0.4-1.2,0.5c0,0.2-0.1,0.3-0.1,0.5c0,0.5,0.2,1,0.6,1.3
	c0.1,0.1,0.3,0.2,0.4,0.3c0.1,0.1,0.3,0.1,0.5,0.1c0.3,0.1,0.7,0,1-0.1c0.3-0.1,0.6-0.3,0.8-0.6c0.2-0.3,0.3-0.6,0.4-0.9
	c0.1-0.7,0.6-1.1,1.3-1.1c0.6,0.1,1.1,0.6,1.1,1.3c-0.1,1.6-1.2,2.9-2.6,3.5c-0.7,0.3-1.5,0.4-2.3,0.3c-0.4-0.1-0.7-0.2-1-0.4
	c-0.6-0.3-1.1-0.7-1.5-1.2c-0.1-0.2-0.2-0.3-0.3-0.5c-1.7,1.6-4.3,1.6-6,0c-1-1-1.4-2.4-1.1-3.8c0.1-0.3,0.2-0.6,0.5-0.8
	C67.7,89.5,68.1,89.4,68.4,89.5L68.4,89.5z M64.1,72.1c0-2-1.6-3.6-3.6-3.6c-2,0-3.6,1.6-3.6,3.6c0,2,1.6,3.6,3.6,3.6
	C62.5,75.8,64.1,74.1,64.1,72.1L64.1,72.1z"/>
<circle class="st1" cx="89.3" cy="79.3" r="3.7"/>
<circle class="st1" cx="64" cy="75.8" r="3.7"/>
<g>
	<path class="st6" d="M75.8,80.4c3.8,0.4,7.4,2.2,10.1,5c2.2,2.5,2.9,5.9,2,9c-1,3.3-3.2,6.1-6.1,7.9c-5.7,4-13.5,2.9-17.8-2.6
		c-2.3-2.5-3.6-5.8-3.6-9.2c0-3.3,1.6-6.3,4.4-8.1C68,80.4,72,79.7,75.8,80.4"/>
	<path class="st6" d="M92.6,69.6c-1-0.6-2.1-0.9-3.2-0.9c-0.9,0-1.8,0.4-2.3,1.1c-0.5,0.6-0.4,1.5,0.1,2.1c0.7,0.8,1.7,1.4,2.7,1.7
		c1.1,0.4,2.3,0.5,3.5,0.5c0.8,0.1,1.5-0.1,2.1-0.7c0.3-0.4,0.1-1-0.4-1.7C94.3,70.8,93.5,70.1,92.6,69.6"/>
	<path class="st6" d="M61.8,65.1c1.1-0.3,2.3-0.3,3.4,0c0.9,0.2,1.6,0.8,2,1.7c0.3,0.8,0,1.6-0.7,2c-0.9,0.6-2,0.9-3.1,0.8
		c-1.2,0-2.4-0.1-3.5-0.5c-1-0.3-1.6-0.7-1.8-1.2s0.2-1,0.9-1.5C59.8,65.7,60.7,65.3,61.8,65.1"/>
	<path class="st6" d="M90.8,77.5c0.6-1.4,0.1-3-1.3-3.6c-1.4-0.6-3-0.1-3.6,1.3s-0.1,3,1.3,3.6C88.6,79.5,90.2,78.9,90.8,77.5"/>
	<path class="st6" d="M65.5,74c0.7,0,1.3,0.6,1.3,1.3c0,0.7-0.6,1.3-1.3,1.3c-0.7,0-1.3-0.6-1.3-1.3c0,0,0,0,0,0
		C64.2,74.6,64.8,74,65.5,74"/>
	<path class="st7" d="M50.5,161.5c-6,2.1-10.1,4-12.3,5.8c-12.6-21.8-9.7-49.3,7.3-68c-22.8,26.2-29.2,52.6-16.3,77
		c0.4-0.6,0.8-1.1,1.3-1.5l7.4,7.3c-0.6,4.4,1.2,7.1,5.5,8.2l13.3-2.1c-4.9-0.7-7.4-3.4-7.4-8c-0.3-3.2-1.7-6.1-4-8.4l27-19.5
		l-2.5-3.6L50.5,161.5z M38,169.6c0.7-0.7,1.6-1.2,2.4-1.7c0.3-0.3,0.6-0.5,1-0.8c1.1-1.1,2.4-1.8,3.8-2.2l-14.8,9.8
		c0.7-0.7,1.5-1.3,2.4-1.7c0.7-0.7,1.6-1.2,2.5-1.6c0.2-0.1,0.3-0.2,0.5-0.3c0.3-0.2,0.6-0.5,0.9-0.7
		C37.2,170.1,37.6,169.8,38,169.6L38,169.6z"/>
	<path class="st7" d="M24.8,155.4l-1.1,7.9c-6.5,1.5-12.9-2.4-14.5-8.9c-1.5-6.5,2.4-12.9,8.9-14.5c0.6-0.1,1.2-0.2,1.8-0.3
		c-4.7,0.3-8.2,4.4-7.8,9.1c0.3,4.7,4.4,8.2,9.1,7.8C22.4,156.5,23.7,156.1,24.8,155.4"/>
	<path class="st7" d="M62.5,105.5V104c-9.1-10.8-15.7-10.9-19.7-0.3c2.5,2.1,5.6,3.4,8.8,3.6L62.5,105.5"/>
	<path class="st7" d="M72.7,153.3c4.3,3.1,6.6,3.3,6.9,0.5c-1.7,0.6-3.1-0.9-4.2-4.5c-1.2-5.2-5.8-9.5-13.6-13
		c-5-2.2-7.6-7.3-7.8-15.2c0.1-3.1-2.3-5.6-5.4-5.7c-3.1-0.1-5.6,2.3-5.7,5.4c0,0.2,0,0.4,0,0.6c0,2.3,0.3,4.7,0.8,7
		c-1.1-2-1.9-4.2-2.6-6.3c-2.7,8.5,0.3,17.8,7.6,23l5.9-4.2c-0.3-0.2-0.5-0.4-0.8-0.6c1.7,0.6,3.4,1.1,5.2,1.3
		C67.1,145.4,71.7,149.4,72.7,153.3"/>
	<path class="st8" d="M80.8,54c3.2-0.2,6.4,0.1,9.5,1.1c0.9,0.6,2,1,3.1,1.1c1.5,0.7,2.9,1.4,4.3,2.4c0.1,0.3,0.3,0.5,0.5,0.8
		l0.1,0.2c0.4,0.6,0.7,1.3,1.1,1.9c0.1,0.2,0.2,0.4,0.3,0.6c0.3,0.5,0.6,1,0.9,1.5c0.2,0.4,0.4,0.7,0.6,1c0.2,0.4,0.5,0.9,0.8,1.3
		l0.4,0.5c0.4,0.5,0.8,0.9,1.3,1.3c0.1,0.1,0.2,0.2,0.3,0.3c-0.1,1.1,0,2.2,0.4,3.3c0.1,0.4,0.3,0.8,0.4,1.3
		c0.1,0.4,0.2,0.7,0.3,1.1L105,74c0.2,0.6,0.2,1.3,0.4,1.9c0.1,0.5,0.2,0.9,0.4,1.4l0.3,1l0.1,0.4c0,0.1,0,0.2,0,0.3
		c0,0.6,0.1,1.2,0.3,1.8c0,0.5,0.1,1,0.2,1.4c-0.1,0.6-0.1,1.2,0,1.8l-0.9,6.3l0.3-0.5c-0.3,0.6-0.5,1.2-0.6,1.8
		c-0.3,0.6-0.5,1.3-0.6,2l-0.3,0.6c-0.2,0.6-0.3,1.1-0.4,1.7c-6.8,9.6-19.2,13.6-30.3,9.7c14.5,0.5,26.5-10.9,27-25.3
		C101.3,67.9,92.9,56.9,80.8,54"/>
	<path class="st7" d="M80.7,54C67,48.9,51.7,55.9,46.5,69.6c-5.1,13.8,1.8,29.1,15.6,34.2c3.4,1.3,6.9,1.8,10.5,1.7
		c-14-3.7-22.4-18-18.7-32C57,61.5,68.3,53.3,80.7,54"/>
</g>
<path class="st9" d="M58.7,51.7c0.4,0.6,0.9,1.2,1.5,1.7l0.1,0.1c0.6-0.3,1.1-0.5,1.7-0.8c0.9-0.4,1.9-0.8,2.9-1.1
	c1-0.3,2-0.6,3-0.8l0.3-0.1c0.1-0.3,0.2-0.6,0.3-1c0.3-0.9,0.4-1.9,0.6-2.9c0.1-1.1,0.2-2.2,0.3-3.2c0-1.1,0-2.3-0.1-3.4
	c-0.1-1.1-0.2-2.3-0.5-3.5l-0.1-0.3v-0.1c-0.2-1.2-0.5-2.3-0.8-3.4c-0.3-1.1-0.7-2.1-1.1-3.2c-0.4-1-0.8-1.9-1.3-2.9
	c-0.5-0.8-1-1.6-1.5-2.4c-0.4-0.6-0.9-1.2-1.5-1.7c-0.4-0.4-0.9-0.8-1.5-1.1c-0.4-0.3-0.9-0.5-1.4-0.6c-0.4-0.1-0.8-0.1-1.3-0.1
	h-0.1c-0.4,0.1-0.8,0.3-1.1,0.5c-0.4,0.3-0.8,0.6-1.1,1c-0.4,0.5-0.7,1.1-1,1.7c-0.3,0.7-0.6,1.4-0.8,2.2c-0.3,0.9-0.4,1.9-0.6,2.9
	c-0.1,1.1-0.2,2.2-0.3,3.2c0,1.1,0,2.3,0.1,3.4c0.1,1.1,0.2,2.3,0.5,3.5l0.1,0.3v0.1c0.2,1.1,0.5,2.3,0.8,3.4
	c0.3,1.1,0.7,2.1,1.1,3.2c0.4,1,0.8,1.9,1.3,2.9C57.7,50.2,58.2,51,58.7,51.7L58.7,51.7z"/>
<path class="st9" d="M88,52.4c0.3,0.1,0.6,0.3,1,0.4c0.9,0.4,1.9,0.9,2.8,1.4s1.8,1,2.6,1.6c0.2,0.1,0.3,0.2,0.5,0.4l0.2-0.1
	c0.6-0.4,1.2-0.8,1.8-1.3c0.7-0.6,1.4-1.3,2-2c0.7-0.8,1.3-1.6,1.9-2.5c0.6-0.9,1.2-1.9,1.8-2.9c0.5-1,1.1-2,1.5-3.1l0.1-0.3
	c0.5-1.1,0.9-2.2,1.2-3.4c0.3-1.1,0.6-2.2,0.9-3.3c0.2-1.1,0.4-2.1,0.5-3.2c0.1-1,0.1-2,0.1-3c0-0.8-0.1-1.5-0.3-2.3
	c-0.1-0.6-0.3-1.2-0.6-1.8c-0.2-0.5-0.5-0.9-0.8-1.3c-0.3-0.3-0.6-0.6-1-0.8H104c-0.4-0.2-0.8-0.2-1.2-0.2c-0.5,0-1,0.1-1.5,0.3
	c-0.6,0.2-1.1,0.5-1.7,0.8c-0.6,0.4-1.2,0.8-1.8,1.3c-0.7,0.6-1.4,1.3-2,2c-0.7,0.8-1.3,1.6-1.9,2.5c-0.6,0.9-1.2,1.9-1.8,2.9
	c-0.6,1-1.1,2.1-1.5,3.1v0.1L90.5,38c-0.5,1.1-0.9,2.3-1.2,3.4c-0.3,1.1-0.6,2.2-0.9,3.3c-0.2,1.1-0.4,2.1-0.5,3.2
	c-0.1,1-0.1,2-0.1,3C87.9,51.4,87.9,51.9,88,52.4L88,52.4z"/>
<path class="st10" d="M101.8,31.6c-2.5-1.7-7.1,2.4-10.4,9.1s-3.9,13.5-1.5,15.1s7.1-2.4,10.4-9.1S104.3,33.2,101.8,31.6"/>
<path class="st10" d="M58.3,27.9c2.8-1.1,6.4,3.9,8.2,11.1s0.9,14-1.9,15.1s-6.4-3.9-8.2-11.1S55.6,29,58.3,27.9"/>
<path class="st11" d="M67.7,148.6c-0.4-0.4-0.9-0.7-1.4-1c-1.2-0.8-2.4-1.4-3.7-2l-28.9,18.2c0.8,1.6,1.4,3.3,1.6,5.2L67.7,148.6z"
	/>
<path class="st11" d="M57,143.5c-1.1-0.4-2.2-0.8-3.2-1.3l-25.2,15.9c1.5,1,2.9,2.2,3.9,3.7l27.4-17.3C59,144.2,58,143.9,57,143.5
	L57,143.5z"/>
<path class="st11" d="M75.5,129.4c0.2,0.6,0.4,1.3,0.7,1.8c0.4,0.7,0.9,1.4,1.5,2l23.8-15l2.8-1.7l8-5c-0.8-1-1.7-1.8-2.9-2.4
	c-0.6-0.3-1.3-0.5-1.9-0.5c-0.2,0-0.5,0.1-0.7,0.2l-0.1,0.1l-6.5,4.1l-24.8,15.6C75.4,128.9,75.4,129.2,75.5,129.4L75.5,129.4z"/>
<path class="st12" d="M10.5,177.1c-0.7-1.2-1.8-2.3-3-3.1c-0.2-0.1-0.4-0.3-0.7-0.4c-0.8-0.5-1.8-0.6-2.7-0.2
	c-0.2,0.1-0.4,0.3-0.5,0.6c-0.3,0.6-0.5,1.3-0.5,1.9c0.2,3.4,2.2,6.5,5.2,8.2c0.6,0.3,1.3,0.5,1.9,0.4c0.3,0,0.5-0.1,0.7-0.2
	c0.7-0.6,1.1-1.5,1-2.5c0-0.3,0-0.5-0.1-0.8C11.8,179.7,11.2,178.3,10.5,177.1z"/>
<path class="st5" d="M107.2,131.8c-0.2-0.3-0.4-0.7-0.7-1c-0.3-0.3-0.5-0.6-0.9-0.9c-0.3-0.3-0.6-0.5-0.9-0.7l-0.1-0.1
	c-0.3-0.2-0.5-0.3-0.8-0.4c-0.3-0.1-0.5-0.2-0.8-0.3c-0.5-0.1-1.1-0.1-1.6,0c-0.3,0.1-0.6,0.2-0.8,0.3c-0.3,0.1-0.6,0.3-0.9,0.5
	c-0.3,0.2-0.6,0.4-0.9,0.7c-0.3,0.3-0.6,0.6-0.8,0.9c-0.2,0.3-0.5,0.6-0.7,1c-0.2,0.3-0.3,0.7-0.5,1c-0.1,0.3-0.2,0.7-0.3,1
	c0,0.2,0,0.3-0.1,0.5c0,0.2,0,0.3,0,0.5c0,0.3,0.1,0.6,0.2,0.9c0.1,0.3,0.2,0.5,0.4,0.8c0.2,0.2,0.4,0.5,0.6,0.7
	c0.3,0.2,0.5,0.4,0.8,0.6c0.3,0.2,0.7,0.3,1,0.5h0.1c0.4,0.1,0.9,0.2,1.3,0.3c0.9,0.1,1.9,0.1,2.9,0c0.4-0.1,0.9-0.2,1.3-0.3
	c0.4-0.1,0.7-0.3,1.1-0.5c0.3-0.2,0.6-0.4,0.9-0.6c0.2-0.2,0.4-0.4,0.6-0.7c0.2-0.2,0.3-0.5,0.4-0.8c0.1-0.3,0.1-0.6,0.2-0.9
	c0-0.3,0-0.6-0.1-1c-0.1-0.3-0.2-0.7-0.3-1C107.6,132.5,107.4,132.1,107.2,131.8L107.2,131.8z"/>
<path class="st13" d="M128.2,102.9c-0.4-0.6-1.1-1.1-1.9-1.1L112,107c2.9,2.1,4.9,5.3,5.5,8.9l2.1-2.1c2.2-2.2,5.1-5.1,8.7-8.6
	C128.7,104.4,128.6,103.6,128.2,102.9L128.2,102.9z"/>
<path class="st14" d="M26.3,167.1c-0.4-0.6-0.7-1.1-1.2-1.6l-0.1-0.1c-0.2-0.2-0.4-0.5-0.7-0.7c-0.9-0.9-1.9-1.6-3-2.1l-1.8,1.1
	l-3,1.9l-0.2,0.1l-8,5c4,2.2,6.6,6.3,6.9,10.9l11.2-7l1.9-1.1c0-1.4-0.3-2.8-0.8-4.1C27.2,168.6,26.8,167.8,26.3,167.1L26.3,167.1z"
	/>
<path class="st13" d="M31.1,164.1c-1.2-1.9-2.9-3.5-4.9-4.5l-0.5,0.3l-0.1,0.1l-1.9,1.2c0.5,0.3,1,0.7,1.5,1.1l0.2,0.1
	c2.9,2.5,4.7,5.9,5.2,9.6l2.5-1.6C33,168.2,32.4,166,31.1,164.1L31.1,164.1z"/>
<path class="st11" d="M106.1,118.2l-2.9,1.9l-23.8,15l0.7,0.7c1,1,1.8,2.1,2.5,3.2c0,0.1,0.1,0.1,0.1,0.2l10.5-6.6
	c0.1-0.3,0.2-0.6,0.3-0.9c0.2-0.5,0.4-1,0.7-1.5c0.3-0.5,0.6-1,1-1.4c0.4-0.5,0.8-0.9,1.2-1.3c0.4-0.4,0.9-0.8,1.3-1.1
	c0.5-0.3,0.9-0.6,1.4-0.8c0.5-0.2,1-0.4,1.5-0.5c1-0.2,2.1-0.2,3.1,0c0.3,0.1,0.6,0.2,0.9,0.3l4-2.5l4.7-2.9l0.1-0.1
	c0.1-0.1,0.2-0.1,0.2-0.2c0.5-0.6,0.7-1.5,0.7-2.3c-0.1-1.3-0.4-2.5-1-3.6L106.1,118.2z"/>
<path class="st1" d="M84,95.7l0.1,0.1C84.2,95.8,84.1,95.7,84,95.7z"/>
<path class="st1" d="M67.5,89.6c-0.3,0.2-0.4,0.5-0.5,0.8c-0.5,2.3,1,4.5,3.3,5c1.4,0.3,2.8-0.1,3.8-1.1c1.1,1.8,3.3,2.6,5.3,1.8
	c1.5-0.6,2.5-1.9,2.6-3.5c0.1-0.6-0.4-1.2-1.1-1.3c-0.7-0.1-1.2,0.4-1.3,1.1c-0.1,0.7-0.5,1.3-1.1,1.5c-0.3,0.1-0.7,0.2-1,0.1
	c-0.2,0-0.3-0.1-0.5-0.1c-0.2-0.1-0.3-0.2-0.4-0.3c-0.4-0.3-0.6-0.8-0.6-1.3c0-0.2,0-0.3,0.1-0.5c0.4-0.1,0.9-0.3,1.2-0.5
	c0.9-0.5,1.5-1.3,1.9-2.2c0.3-0.9,0.1-1.9-0.6-2.6c-1.8-1.7-4.4-2-6.6-1c-0.8,0.5-1.3,1.3-1.3,2.3c0.1,1,0.5,1.9,1.2,2.7
	c0.3,0.3,0.7,0.6,1,0.9C72.9,92.3,72,93,71,93c-1-0.1-1.8-0.9-1.7-1.9c0-0.1,0-0.2,0-0.3c0.1-0.7-0.3-1.3-1-1.4
	C68.1,89.3,67.7,89.4,67.5,89.6L67.5,89.6z"/>
<path class="st15" d="M96.8,123.2c1.6,0.1,3.2,0.7,4.3,1.9c-0.1,0.1-0.3,0.2-0.4,0.3c-1.4,1-2.6,2.2-3.4,3.7
	c-0.4,0.7-0.6,1.4-0.7,2.2c-0.4,0.6-0.8,1.2-1.3,1.8l-0.2,0.2c-0.2,0.2-0.4,0.3-0.5,0.5c-0.4,0.4-0.8,0.8-1.1,1.3
	c-0.3,0.3-0.5,0.7-0.7,1c-0.6-0.3-1.1-0.7-1.6-1.1c-1.3-1.3-1.9-3.1-1.5-4.9c0.4-1.9,1.3-3.6,2.7-4.9
	C93.5,124,95.1,123.3,96.8,123.2"/>
<path class="st15" d="M62.8,152.9l7.6-3.2c-1.1-3.3-6.8-6.5-17.1-9.6c-0.1-0.6-1.8,1.1-5.3,5C55.2,147.9,60.1,150.5,62.8,152.9"/>
<path class="st8" d="M90.7,138.1c9.2,3.8,13.6,14.5,9.8,23.7c-0.9,2.1-2.2,4.1-3.8,5.7c-3.4,3.9-1.8,6.6,4.7,8.3
	c1.9,1.3,2.4,4,1.1,5.9c-1.3,1.9-4,2.4-5.9,1.1c-0.3-0.2-0.7-0.5-0.9-0.8c0.4-2.8-2-5.5-7.2-8.4c-2.3-0.3-4.2-2.1-4.4-4.5
	c-0.1-2.3,1.3-4.5,3.4-5.3c6.9-2.7,10.3-10.6,7.6-17.5c-1.3-3.2-3.7-5.8-6.8-7.2C89.1,137.2,89.9,136.8,90.7,138.1"/>
<path class="st8" d="M78.7,160.4c-0.9,6-2.5,11.9-4.9,17.5c3.2,1.3,6.1,3.9,8.5,7.7c-0.7,3-3.8,3.8-9.3,2.3c0.6-3.1-1.8-5.5-7.1-7.2
	c-2.5,1.1-5.5,0-6.6-2.5c-1.1-2.5,0-5.5,2.5-6.6c0.7-0.3,1.6-0.5,2.4-0.4c6-0.2,10.7-5.1,10.5-11c0-1.9-0.6-3.8-1.6-5.4
	C77,156.3,78.8,158.1,78.7,160.4"/>
<path class="st8" d="M73.6,130.1c6.9,8.4,9.5,14.2,7.7,17.4c-0.6-3.5-2.8-6.2-6.6-8c-5-2.4-7.6-6.4-7.7-12.2
	c-0.3-7.9-6.4-14.3-14.3-15.1c-1.8,0-3.3-1.5-3.3-3.4c0-1.3,0.7-2.4,1.8-3c7.7-1.5,15.6,2,19.6,8.7L73.6,130.1"/>
<path class="st8" d="M99.7,138.6c2.7,1.8,6.4,1.1,8.3-1.6c1.8-2.7,1.1-6.4-1.6-8.3c-1.8-1.2-4.2-1.3-6.2-0.3
	c2.8,0.2,4.9,2.7,4.7,5.5C104.6,136.6,102.4,138.7,99.7,138.6"/>
<path class="st1" d="M140.5,93.3c-1.3,0.5-13.4,4.8-33.9,12.2c-0.5,0.1-0.9,0.2-1.4,0.5c-0.1,0-0.2,0.1-0.2,0.1l-8.1,5.1
	c-0.6-0.9-1.1-1.7-1.7-2.6c-0.6-0.9-1.3-1.8-1.9-2.7c0.2-0.1,0.5-0.2,0.7-0.4c0.9-0.5,1.8-1,2.7-1.6c0.9-0.6,1.7-1.2,2.5-1.8
	c0.8-0.6,1.5-1.3,2.2-2c0.7-0.7,1.3-1.5,2-2.3c0.6-0.8,1.2-1.6,1.7-2.4c1.5-2.5,2.6-5.3,3.2-8.2c0.2-1,0.3-2,0.4-2.9
	c0.1-1,0.1-1.9,0.1-2.9c0-1-0.1-2-0.2-2.9c-0.1-1-0.3-2-0.5-2.9c-0.2-1-0.5-1.9-0.8-2.9c-0.3-1-0.7-1.9-1.1-2.8
	c-0.4-0.9-0.9-1.8-1.4-2.7c-0.5-0.9-1.1-1.8-1.6-2.6c-0.6-0.9-1.2-1.7-1.9-2.5c-0.7-0.8-1.4-1.5-2.1-2.3c-0.3-0.3-0.7-0.6-1-1
	c0.4-0.3,0.9-0.6,1.3-1c0.8-0.7,1.6-1.5,2.3-2.4c0.8-0.9,1.5-1.9,2.2-2.9c1.5-2.1,2.7-4.4,3.7-6.7l0.1-0.2l0.1-0.1
	c0.5-1.3,1-2.5,1.4-3.8c0.4-1.2,0.7-2.5,1-3.8c0.2-1.2,0.4-2.4,0.5-3.7c0.1-1.1,0.1-2.3,0.1-3.4c-0.1-1.1-0.2-2.2-0.5-3.3
	c-0.2-1-0.6-1.9-1-2.8c-0.4-0.8-0.9-1.5-1.6-2.1c-0.6-0.6-1.3-1-2-1.4h-0.1c-0.8-0.3-1.6-0.5-2.4-0.5c-0.9-0.1-1.7,0-2.6,0.2
	c-0.9,0.3-1.8,0.7-2.7,1.1c-1,0.6-1.8,1.2-2.7,1.9c-0.8,0.7-1.6,1.5-2.4,2.3c-0.8,0.9-1.5,1.9-2.2,2.9c-0.7,1-1.4,2.1-2,3.2
	c-0.6,1.1-1.2,2.3-1.7,3.5l-0.1,0.3v0.1c-0.5,1.3-1,2.5-1.4,3.8c-0.4,1.3-0.7,2.5-1,3.8c-0.2,1.2-0.4,2.4-0.5,3.7
	c-0.1,1.1-0.1,2.3-0.1,3.4v0.1c-0.3-0.1-0.5-0.1-0.8-0.2c-1-0.2-2-0.4-3-0.6C79,50.2,78,50.1,77,50C76,50,75,50,73.9,50
	c-0.5,0-1,0.1-1.5,0.1c0.2-0.8,0.4-1.7,0.5-2.6c0.2-1.2,0.3-2.5,0.3-3.7c0-1.3,0-2.6-0.1-3.9c-0.1-1.3-0.3-2.6-0.5-4v-0.1l-0.1-0.3
	c-0.3-1.3-0.6-2.6-0.9-3.8c-0.4-1.2-0.8-2.4-1.2-3.6c-0.5-1.1-1-2.2-1.5-3.3c-0.5-1-1.1-1.9-1.8-2.8c-0.7-0.9-1.4-1.7-2.2-2.5
	c-0.7-0.7-1.5-1.2-2.4-1.7c-0.8-0.4-1.6-0.7-2.4-0.9c-0.8-0.1-1.6-0.1-2.4,0h-0.1c-0.8,0.2-1.6,0.5-2.3,0.9c-0.7,0.5-1.4,1-2,1.7
	c-0.7,0.7-1.2,1.6-1.7,2.4c-0.5,1-0.9,2.1-1.2,3.1c-0.3,1.1-0.6,2.2-0.7,3.3c-0.2,1.2-0.3,2.5-0.3,3.7c0,1.3,0,2.6,0.1,3.9
	c0.1,1.3,0.3,2.6,0.5,4v0.1l0,0.2v0c0.3,1.3,0.6,2.6,0.9,3.8c0.4,1.2,0.8,2.4,1.2,3.6c0.5,1.1,1,2.2,1.5,3.3c0.5,1,1.1,1.9,1.8,2.8
	c0.4,0.5,0.8,1,1.1,1.4l-0.2,0.1c-0.9,0.6-1.7,1.2-2.5,1.8c-0.8,0.6-1.6,1.3-2.3,2c-0.7,0.7-1.4,1.5-2.1,2.2s-1.3,1.6-1.8,2.4
	c-0.6,0.8-1.1,1.7-1.6,2.5c-0.5,0.9-0.9,1.7-1.3,2.7c-0.4,0.9-0.7,1.8-1,2.8c-0.3,0.9-0.5,1.9-0.7,2.8c-0.2,1-0.3,2-0.4,2.9
	c-0.1,1-0.1,2-0.1,2.9c0.1,2,0.4,3.9,0.9,5.8c0.3,1,0.6,1.9,0.9,2.8c0.4,0.9,0.8,1.8,1.2,2.7c0.3,0.6,0.6,1.1,1,1.7
	c-2.2,2.3-4.3,4.5-6.2,6.9c-2.4,2.9-4.6,5.9-6.6,9c-2,3-3.8,6-5.4,9.2c-1.5,3-2.9,6.2-4,9.4c-0.9,2.6-1.6,5.2-2.2,7.8
	c-8.3-0.9-15.8,5.1-16.7,13.4c-0.6,5.9,2.2,11.6,7.3,14.6l-9.6,6c-0.1,0.1-0.2,0.1-0.3,0.2c-0.2,0.1-0.3,0.2-0.5,0.3
	c-1.7,1.2-2.6,3.2-2.5,5.3c0.2,4.6,2.9,8.8,7,11.1c1.8,1,4,1.1,5.8,0c0.1-0.1,0.3-0.2,0.4-0.3c0.1,0,0.2-0.1,0.4-0.2l15.1-9.5
	c0.8,0.8,1.6,1.6,2.3,2.3c1.2,1.2,2.6,2.3,4,3.2c-0.7,2-0.5,4.2,0.6,6.1c1.3,1.9,3.4,3,5.7,3c6.2,0.3,12.3,0.4,18.5,0.4
	c6.1,0,12.3-0.1,18.4-0.3h0c1.6,0,3.1-0.7,4.2-1.8c1-1,1.5-2.4,1.4-3.9h2.4c1.6,0,3.2,0,4.7-0.1s3.1-0.1,4.7-0.1
	c1.5,0,3-0.1,4.5-0.1h0c0.8,0,1.6-0.2,2.3-0.5c0.7-0.3,1.3-0.7,1.8-1.3c0.4-0.4,0.7-0.9,0.9-1.4c0.2-0.5,0.4-1.1,0.4-1.7
	c0.1-0.6,0-1.2-0.1-1.7c-0.1-0.6-0.3-1.2-0.5-1.7c-0.6-1.2-1.3-2.2-2.3-3.1c-1.1-1-2.4-1.7-3.7-2.3H99c-0.5-0.2-1.1-0.4-1.6-0.6
	c-0.3-0.1-0.7-0.2-1.1-0.3c0.4-0.4,0.9-0.8,1.3-1.3c1.5-1.7,2.8-3.6,3.7-5.6c2.9-6.4,2.7-13.7-0.6-19.8c-0.5-0.9-1-1.8-1.6-2.6
	c0.4,0.1,0.8,0.2,1.2,0.3c1.3,0.2,2.7,0.2,4.1,0c0.6-0.1,1.3-0.3,1.9-0.5c0.6-0.2,1.2-0.5,1.8-0.8c0.5-0.3,1-0.7,1.5-1.1
	c0.4-0.4,0.8-0.9,1.1-1.4c0.3-0.5,0.6-1,0.7-1.6c0.2-0.6,0.3-1.1,0.3-1.7c0-0.6,0-1.2-0.1-1.8c-0.1-0.5-0.3-1.1-0.5-1.6
	c-0.2-0.5-0.5-1-0.7-1.5c-0.3-0.5-0.6-1-1-1.4c-0.4-0.5-0.8-0.9-1.2-1.3c-0.1-0.1-0.2-0.1-0.3-0.2l7.4-4.7c0.1-0.1,0.2-0.2,0.3-0.2
	c0.2-0.2,0.4-0.4,0.6-0.6c1.1-0.9,2.9-2.7,5.8-5.6c4-4,10.3-10.3,20.3-20c0.6-0.6,0.6-1.7,0-2.3C141.8,93.3,141.1,93.2,140.5,93.3
	L140.5,93.3z M100.1,113l6.5-4.1l0.1-0.1c0.2-0.1,0.4-0.2,0.7-0.2c0.7,0,1.3,0.1,1.9,0.5c1.1,0.6,2.1,1.4,2.9,2.4l-8,5l-2.8,1.7
	l-23.8,15c-0.6-0.6-1.1-1.3-1.5-2c-0.3-0.6-0.6-1.2-0.7-1.8c-0.1-0.3-0.1-0.6-0.2-0.8L100.1,113z M93.5,113.3l-18.4,11.6
	c0-0.6-0.1-1.2-0.2-1.8c-0.1-1.2-0.3-2.5-0.6-3.7c-0.6-2.6-1.5-5-2.9-7.3c-0.8-1.3-1.7-2.5-2.7-3.5c0.9,0.2,1.9,0.4,2.9,0.5
	c1.1,0.2,2.3,0.3,3.4,0.3c1.1,0.1,2.2,0.1,3.4,0.1c1.1,0,2.2-0.1,3.3-0.2c1.1-0.1,2.2-0.3,3.2-0.5c1.1-0.2,2.1-0.5,3.2-0.8
	c0.4-0.1,0.9-0.3,1.3-0.4l0.5,0.6c0.3,0.5,0.7,0.9,1,1.4c0.4,0.5,0.7,1,1,1.4c0.3,0.5,0.7,0.9,1,1.4C93.1,112.7,93.3,113,93.5,113.3
	L93.5,113.3z M87.8,47.8c0.1-1.1,0.2-2.1,0.5-3.2c0.2-1.1,0.5-2.2,0.9-3.3c0.3-1.1,0.8-2.2,1.2-3.4l0.1-0.3v-0.1
	c0.5-1.1,1-2.1,1.5-3.1c0.5-1,1.1-1.9,1.8-2.9c0.6-0.9,1.2-1.7,1.9-2.5c0.6-0.7,1.3-1.4,2-2c0.6-0.5,1.2-0.9,1.8-1.3
	c0.5-0.3,1.1-0.6,1.7-0.8c0.5-0.2,1-0.3,1.5-0.3c0.4,0,0.8,0.1,1.2,0.2h0.1c0.4,0.2,0.7,0.4,1,0.8c0.3,0.4,0.6,0.8,0.8,1.3
	c0.3,0.6,0.4,1.2,0.6,1.8c0.2,0.8,0.3,1.5,0.3,2.3c0.1,1,0,2-0.1,3c-0.1,1.1-0.2,2.1-0.5,3.2c-0.2,1.1-0.5,2.2-0.9,3.3
	c-0.3,1.1-0.8,2.2-1.2,3.4l-0.1,0.3c-0.5,1.1-1,2.1-1.5,3.1c-0.5,1-1.1,1.9-1.8,2.9c-0.6,0.9-1.2,1.7-1.9,2.5
	c-0.6,0.7-1.3,1.4-2,2.1c-0.6,0.5-1.2,0.9-1.8,1.3l-0.2,0.1c-0.2-0.1-0.3-0.3-0.5-0.4c-0.8-0.6-1.7-1.1-2.6-1.6
	c-0.9-0.5-1.8-1-2.8-1.4c-0.3-0.1-0.6-0.3-0.9-0.4c-0.1-0.5-0.2-1.1-0.2-1.7C87.7,49.8,87.8,48.8,87.8,47.8L87.8,47.8z M55.8,46.4
	c-0.4-1-0.8-2.1-1.1-3.2c-0.3-1.1-0.6-2.2-0.8-3.4v0l-0.1-0.3c-0.2-1.2-0.4-2.4-0.5-3.5c-0.1-1.1-0.1-2.3-0.1-3.4
	c0-1.1,0.1-2.2,0.3-3.2c0.1-1,0.3-1.9,0.6-2.9c0.2-0.7,0.5-1.5,0.8-2.2c0.3-0.6,0.6-1.2,1-1.7c0.3-0.4,0.7-0.8,1.1-1.1
	c0.3-0.2,0.7-0.4,1.1-0.5h0.1c0.4-0.1,0.8,0,1.3,0.1c0.5,0.1,0.9,0.3,1.4,0.6c0.5,0.3,1,0.7,1.5,1.1c0.5,0.5,1,1.1,1.5,1.7
	c0.6,0.8,1.1,1.6,1.5,2.4c0.5,0.9,0.9,1.9,1.3,2.9c0.4,1,0.8,2.1,1.1,3.2c0.3,1.1,0.6,2.2,0.8,3.4v0.1l0.1,0.3
	c0.2,1.2,0.4,2.4,0.5,3.5c0.1,1.1,0.1,2.3,0.1,3.4c0,1.1-0.1,2.2-0.3,3.2c-0.1,1-0.3,1.9-0.6,2.9c-0.1,0.3-0.2,0.6-0.3,1l-0.3,0.1
	c-1,0.2-2,0.5-3,0.8s-1.9,0.7-2.9,1.1c-0.6,0.2-1.1,0.5-1.7,0.8l-0.1-0.1c-0.5-0.5-1-1.1-1.5-1.7c-0.6-0.8-1.1-1.6-1.5-2.4
	C56.7,48.4,56.2,47.4,55.8,46.4L55.8,46.4z M46.6,80.7c0-0.8,0-1.7,0.1-2.5c0.1-0.8,0.2-1.7,0.3-2.5c0.2-0.8,0.4-1.6,0.6-2.4
	c0.2-0.8,0.5-1.6,0.9-2.4c0.3-0.8,0.7-1.5,1.1-2.3c0.8-1.5,1.8-3,3-4.3c0.6-0.7,1.2-1.3,1.8-2s1.3-1.2,2-1.8
	c0.7-0.6,1.5-1.1,2.2-1.6c0.4-0.3,0.8-0.6,1.3-0.8c0.4-0.2,0.7-0.4,1.1-0.6c0.8-0.4,1.6-0.8,2.5-1.2s1.7-0.7,2.6-1
	c0.9-0.3,1.7-0.5,2.6-0.7c0.7-0.2,1.4-0.3,2.2-0.4l0.5-0.1c0.9-0.1,1.8-0.2,2.7-0.2c0.9,0,1.8,0,2.7,0c0.9,0,1.8,0.1,2.7,0.3
	c0.9,0.1,1.8,0.3,2.7,0.5c0.8,0.2,1.7,0.4,2.5,0.7l0.1,0c0.9,0.3,1.7,0.6,2.5,1c0.8,0.4,1.6,0.8,2.4,1.2c0.8,0.4,1.6,0.9,2.3,1.4
	c0.7,0.5,1.5,1.1,2.2,1.6c0.7,0.6,1.4,1.2,2,1.8c0.6,0.6,1.3,1.3,1.9,2c0.6,0.7,1.2,1.4,1.7,2.2c0.5,0.7,1,1.5,1.5,2.3
	c0.4,0.8,0.9,1.6,1.2,2.4c0.4,0.8,0.7,1.6,1,2.5c0.3,0.8,0.5,1.6,0.7,2.5c0.2,0.8,0.3,1.7,0.4,2.5c0.1,0.8,0.2,1.7,0.2,2.5
	c0,0.8,0,1.7-0.1,2.5c-0.1,0.8-0.2,1.7-0.4,2.5c-0.2,0.8-0.4,1.6-0.6,2.4c-0.5,1.6-1.2,3.1-2.1,4.5c-0.4,0.7-0.9,1.4-1.4,2.1
	c-0.5,0.7-1.1,1.3-1.7,1.9c-0.6,0.6-1.2,1.2-1.9,1.8c-0.7,0.6-1.4,1.1-2.1,1.6c-0.8,0.5-1.5,1-2.3,1.4c-0.4,0.2-0.9,0.5-1.4,0.7
	s-0.8,0.3-1.1,0.5c-0.9,0.4-1.8,0.7-2.7,0.9l-0.2,0c-0.9,0.3-1.7,0.5-2.6,0.7s-1.9,0.3-2.9,0.5s-2,0.2-3,0.2s-2,0-3-0.1
	s-2-0.2-3-0.3s-2-0.3-3-0.6s-2-0.5-2.9-0.8s-1.9-0.7-2.8-1s-1.8-0.8-2.7-1.3s-1.7-0.9-2.5-1.5s-1.6-1.1-2.3-1.7s-1.4-1.2-2.1-1.8
	c-0.7-0.6-1.3-1.3-1.9-2c-0.2-0.2-0.4-0.5-0.6-0.7l-0.1-0.1c-0.3-0.4-0.6-0.8-0.9-1.2c-0.2-0.2-0.3-0.5-0.5-0.7L50,91.6
	c-0.3-0.4-0.5-0.9-0.8-1.3c-0.4-0.7-0.8-1.5-1.1-2.3c-0.3-0.8-0.6-1.6-0.8-2.4C46.9,84,46.7,82.3,46.6,80.7L46.6,80.7z M24.7,145
	c0.2-2.6,0.6-5.1,1.1-7.7c0.6-2.6,1.3-5.2,2.2-7.8c1.1-3.1,2.4-6.1,3.8-9c1.5-3,3.3-6,5.2-8.8c2-3,4.1-5.8,6.4-8.6
	c1.7-2.1,3.6-4.1,5.5-6.1l0.1,0.2c0.7,0.8,1.4,1.6,2.1,2.3c0.8,0.7,1.6,1.4,2.4,2.1c0.7,0.6,1.5,1.1,2.3,1.7h-0.6
	c-1.5,0-3,0.2-4.5,0.5c-0.9,0.2-1.5,1.2-1.3,2.1c0.2,0.9,1.2,1.5,2.1,1.3c0.6-0.1,1.2-0.2,1.9-0.3c0.6-0.1,1.2-0.1,1.9-0.1
	c1.7,0,3.4,0.2,5.1,0.7c1.6,0.5,3,1.2,4.4,2.2c1.6,1.2,2.9,2.7,3.9,4.4c1.1,1.9,1.9,4,2.4,6.2c0.3,1.1,0.4,2.2,0.6,3.4
	c0.1,1.1,0.2,2.4,0.2,3.7v0.1c0,1,0.2,2.1,0.4,3.1c0.2,0.9,0.6,1.8,1.1,2.6c0.5,0.9,1.1,1.7,1.8,2.4c0.7,0.8,1.6,1.7,2.6,2.8
	c0.7,0.7,1.4,1.6,1.9,2.5c0.5,0.9,0.9,1.9,1.1,2.9c0.3,1.1,0.4,2.2,0.4,3.3c0,1.2-0.1,2.5-0.4,3.7c-0.1,0.7-0.4,1.4-0.7,2
	c-0.3,0.5-0.6,1-1.1,1.4c-0.2,0.2-0.4,0.3-0.7,0.4c-0.2,0.1-0.5,0.2-0.7,0.2c-0.3,0-0.5,0-0.8-0.1c-0.3-0.1-0.5-0.2-0.8-0.3
	c-0.5-0.3-1-0.8-1.3-1.3c-0.4-0.6-0.8-1.3-1-2v-0.1c-0.5-1.2-1.1-2.3-2-3.2c-1-1.1-2.1-2.1-3.4-2.9c-1.4-0.9-2.9-1.7-4.5-2.4
	c-1.9-0.8-3.8-1.5-5.7-2.1h0c-1.5-0.5-2.9-1.1-4.3-1.9c-1.3-0.8-2.6-1.7-3.7-2.7c-1.1-1-2-2.1-2.9-3.4c-0.8-1.2-1.5-2.5-2-3.9
	c-0.2-0.6-0.4-1.1-0.5-1.7c-0.2-0.6-0.3-1.2-0.4-1.8c-0.1-0.6-0.2-1.2-0.2-1.8c0-0.4,0-0.8,0-1.1v-0.6c0-1-0.8-1.8-1.7-1.8
	c-1,0-1.8,0.8-1.8,1.7c0,0.7,0,1.4,0.1,2.1c0,0.7,0.1,1.4,0.3,2.1c0.1,0.7,0.3,1.4,0.5,2.1c0.2,0.7,0.4,1.4,0.6,2
	c0.6,1.6,1.4,3.2,2.4,4.6c1,1.5,2.1,2.8,3.4,4c0.9,0.8,1.9,1.6,2.9,2.3l-25.4,16c-0.2-1.3-0.4-2.6-0.5-3.9
	C24.5,150.1,24.5,147.6,24.7,145L24.7,145z M62.6,145.6c1.3,0.6,2.5,1.2,3.7,2c0.5,0.3,0.9,0.7,1.4,1L35.4,169
	c-0.2-1.8-0.8-3.5-1.6-5.2L62.6,145.6z M32.5,161.8c-1.1-1.5-2.4-2.7-4-3.7l25.2-15.9c1.1,0.5,2.1,1,3.2,1.3h0c1,0.3,2,0.6,2.9,1
	L32.5,161.8z M10.7,156.3c-2.8-5.4-0.8-12.1,4.7-15c1.9-1,3.9-1.4,6-1.2c-0.3,1.7-0.4,3.3-0.6,5c-0.2,2.7-0.2,5.4,0,8.1
	c0.2,1.8,0.4,3.6,0.8,5.4l-4.8,3c-0.2-0.1-0.5-0.2-0.7-0.3C13.8,160.3,11.9,158.6,10.7,156.3L10.7,156.3z M11,184.3
	c-0.2,0.1-0.5,0.2-0.7,0.2c-0.7,0-1.4-0.1-1.9-0.4c-3-1.7-4.9-4.8-5.2-8.2c0-0.7,0.1-1.4,0.5-1.9c0.1-0.2,0.3-0.4,0.5-0.6
	c0.9-0.4,1.9-0.3,2.7,0.2c0.2,0.1,0.4,0.2,0.7,0.4c2.4,1.7,4,4.2,4.5,7.1c0,0.3,0.1,0.5,0.1,0.8C12.1,182.8,11.8,183.7,11,184.3
	L11,184.3z M26.4,174.7l-11.2,7c-0.3-4.6-2.9-8.7-6.9-10.9l8-5l0.2-0.1l3-1.9l1.8-1.1c1.1,0.5,2.1,1.3,3,2.1
	c0.2,0.2,0.5,0.5,0.7,0.7l0.1,0.1c1,1.1,1.8,2.5,2.3,3.9c0.5,1.3,0.8,2.7,0.8,4.1L26.4,174.7z M30.6,172c-0.5-3.8-2.3-7.2-5.2-9.7
	l-0.2-0.1c-0.5-0.4-1-0.8-1.5-1.1l1.9-1.2l0.1-0.1l0.5-0.3c4.1,2.1,6.7,6.3,6.9,10.9L30.6,172z M78.1,187.7c-2.9,0.1-5.9,0.2-9,0.3
	c-9.2,0.2-18.4,0-27.6-0.4h-0.1c-1.3,0.2-2.5-0.8-2.7-2.1c0-0.1,0-0.2,0-0.3c0-0.9,0.3-1.8,0.7-2.6c0.5-1,0.1-2.3-1-2.7
	c-0.1,0-0.2-0.1-0.3-0.1c-1.3-0.6-2.5-1.4-3.5-2.4c-0.8-0.7-1.6-1.5-2.4-2.4l37.7-23.8c0.2,0.3,0.3,0.6,0.4,0.9l0,0.1
	c0.4,1,0.9,2,1.6,2.9c0.6,0.8,1.3,1.5,2.2,2c0.5,0.3,1.1,0.6,1.7,0.8c2.9,8.2-1.4,17.2-9.6,20.1c-0.8,0.3-1.5,0.5-2.3,0.6
	c-1.1,0.2-1.8,1.1-1.6,2.2c0.2,1.1,1.1,1.8,2.2,1.6c0,0,0.1,0,0.1,0c1.9-0.4,3.8-1,5.5-1.9c0.9,0.2,1.7,0.4,2.6,0.6
	c1,0.3,2,0.6,2.9,1c0.9,0.4,1.7,0.9,2.4,1.5c0.8,0.6,1.4,1.5,1.7,2.5C79.9,187.1,79.2,187.7,78.1,187.7L78.1,187.7z M99.2,157.2
	c-0.2,1.8-0.7,3.6-1.5,5.3c-0.8,1.7-1.8,3.2-3,4.6c-1.2,1.4-2.7,2.5-4.2,3.4c-1.6,0.9-3.3,1.5-5,1.9c-0.5,0.1-1,0.4-1.3,0.9
	c-0.3,0.5-0.4,1-0.3,1.5c0.1,0.5,0.4,1,0.8,1.3c0.4,0.3,0.9,0.4,1.5,0.3h0c2-0.4,4-1.1,5.8-2.1c0.4,0.1,0.7,0.1,1.1,0.2
	c0.5,0.1,1,0.3,1.5,0.4s1,0.3,1.5,0.5s1,0.3,1.4,0.5c0.9,0.4,1.7,0.9,2.4,1.5c0.6,0.5,1.1,1.1,1.4,1.8c0.1,0.2,0.2,0.4,0.2,0.7
	c0,0.2,0.1,0.4,0,0.6c0,0.1,0,0.3-0.1,0.4c0,0.1-0.1,0.2-0.2,0.3c-0.1,0.2-0.3,0.3-0.5,0.3c-0.3,0.1-0.5,0.1-0.8,0.1
	c-1.5,0.1-3,0.1-4.5,0.2c-1.5,0-3,0.1-4.6,0.1c-1.6,0-3.1,0-4.7,0.1h-3.8c-1.3-1.7-3.1-3.1-5.2-3.9l-0.1,0c-0.9-0.3-1.8-0.6-2.6-0.9
	c0.3-0.2,0.5-0.5,0.7-0.7c4.8-5.1,6.5-12.3,4.5-18.9c0.5-0.2,1-0.5,1.5-0.9c0.7-0.6,1.3-1.4,1.8-2.2c0.5-1,0.9-2,1.1-3.1v0
	c0.3-1.5,0.5-3,0.5-4.5c0-1.4-0.2-2.7-0.5-4.1c0-0.2-0.1-0.3-0.1-0.5l5.5-3.5l0.1,0.1c1.6,0.8,3.1,1.9,4.4,3.1
	c1.3,1.3,2.4,2.8,3.3,4.4c0.9,1.6,1.5,3.4,1.8,5.2C99.4,153.4,99.5,155.3,99.2,157.2L99.2,157.2z M108,133.9c0.1,0.3,0.1,0.6,0.1,1
	c0,0.3-0.1,0.6-0.2,0.9c-0.1,0.3-0.2,0.5-0.4,0.8c-0.2,0.2-0.4,0.5-0.6,0.7c-0.3,0.2-0.5,0.4-0.9,0.6c-0.3,0.2-0.7,0.4-1.1,0.5
	c-0.4,0.1-0.9,0.2-1.3,0.3c-0.9,0.1-1.9,0.1-2.9,0c-0.4-0.1-0.9-0.2-1.3-0.3h-0.1c-0.4-0.1-0.7-0.3-1-0.5c-0.3-0.2-0.6-0.4-0.8-0.6
	c-0.2-0.2-0.4-0.4-0.6-0.7c-0.2-0.2-0.3-0.5-0.4-0.8c-0.1-0.3-0.1-0.6-0.2-0.9c0-0.2,0-0.3,0-0.5c0-0.2,0-0.3,0.1-0.5
	c0.1-0.3,0.2-0.7,0.3-1c0.1-0.3,0.3-0.7,0.5-1c0.2-0.3,0.4-0.7,0.7-1c0.3-0.3,0.5-0.6,0.8-0.9c0.3-0.2,0.6-0.5,0.9-0.7
	c0.3-0.2,0.6-0.4,0.9-0.5c0.3-0.1,0.5-0.2,0.8-0.3c0.5-0.1,1.1-0.1,1.6,0c0.3,0.1,0.6,0.2,0.8,0.3c0.3,0.1,0.5,0.3,0.8,0.4l0.1,0.1
	c0.3,0.2,0.6,0.4,0.9,0.7c0.3,0.3,0.6,0.6,0.9,0.9c0.3,0.3,0.5,0.6,0.7,1c0.2,0.3,0.4,0.7,0.5,1C107.8,133.2,107.9,133.5,108,133.9
	L108,133.9z M113.8,119.6c-0.1,0.1-0.2,0.1-0.2,0.2l-0.1,0.1l-4.7,2.9l-4,2.5c-0.3-0.1-0.6-0.2-0.9-0.3c-1-0.2-2.1-0.2-3.1,0
	c-0.5,0.1-1,0.3-1.5,0.5c-0.5,0.2-1,0.5-1.5,0.7c-0.5,0.3-0.9,0.7-1.3,1.1c-0.4,0.4-0.8,0.8-1.2,1.3c-0.4,0.4-0.7,0.9-1,1.4
	c-0.3,0.5-0.5,1-0.7,1.5c-0.1,0.3-0.2,0.6-0.3,0.9l-10.5,6.6c0-0.1-0.1-0.1-0.1-0.2c-0.7-1.2-1.5-2.3-2.5-3.2l-0.7-0.7l23.8-15
	l2.9-1.9l7.4-4.6c0.6,1.1,0.9,2.4,1,3.6C114.6,118.1,114.3,118.9,113.8,119.6L113.8,119.6z M128.4,105.1c-3.6,3.6-6.5,6.4-8.7,8.6
	l-2.1,2.1c-0.6-3.6-2.6-6.8-5.5-8.9l14.3-5.2c1.3,0.1,2.3,1.2,2.2,2.5C128.6,104.6,128.5,104.9,128.4,105.1L128.4,105.1z"/>
</svg>
